<svg width="800" height="234" viewBox="0 0 800 234" fill="none" xmlns="http://www.w3.org/2000/svg">
<path d="M190.846 182.264L122.336 227.264C115.946 231.464 108.716 233.584 101.426 233.584C95.5861 233.584 89.7262 232.214 84.2162 229.454C71.8962 223.254 64.0662 211.304 63.2762 197.544L62.8862 190.674L61.8962 173.554L58.5762 115.704C66.9562 115.224 74.1362 121.624 74.6161 129.994L76.6061 164.734L77.5862 181.854L78.4462 196.674C78.9262 204.964 83.6362 212.144 91.0762 215.884C98.4962 219.624 107.066 219.124 114.026 214.564L182.536 169.584C189.476 165.004 193.346 157.334 192.866 149.034C192.386 140.744 187.676 133.564 180.256 129.824L171.016 125.184H170.996L153.966 116.594L171.106 108.234L187.076 116.274C187.366 116.414 187.646 116.564 187.936 116.734C199.756 123.044 207.246 134.724 208.036 148.184C208.826 161.964 202.416 174.694 190.866 182.264H190.846Z" fill="white"/>
<path d="M15.196 78.5845L16.636 160.535C16.776 168.845 21.1961 176.215 28.4561 180.245C35.7361 184.275 44.3261 184.115 51.4561 179.835L61.8961 173.565L76.596 164.735L77.576 181.855L62.886 190.685L59.2661 192.865C53.1461 196.535 46.396 198.385 39.626 198.385C33.286 198.385 26.926 196.775 21.106 193.535C9.04602 186.855 1.68605 174.615 1.44605 160.825L0.00604415 78.8645C-0.233956 65.0645 6.68605 52.5945 18.5161 45.4845C30.3561 38.3745 44.616 38.1345 56.676 44.8145L61.406 47.4345L76.056 55.5545L128.376 84.5545C124.306 91.8945 115.056 94.5445 107.726 90.4745L74.876 72.2645L60.226 64.1445L49.326 58.0945C42.056 54.0645 33.456 54.2245 26.346 58.5045C19.216 62.7745 15.056 70.2945 15.186 78.6045L15.196 78.5845Z" fill="white"/>
<path d="M206.356 86.6944C205.466 99.3544 198.646 110.364 187.916 116.734C186.976 117.314 186.016 117.844 185.016 118.324L170.996 125.174H170.976L124.986 147.614C117.446 151.294 108.356 148.164 104.676 140.634L153.946 116.594L171.086 108.234L177.766 104.974C185.016 101.434 190.276 94.5344 191.136 86.5144C192.056 77.8844 188.266 69.7944 181.136 64.9844L113.176 19.1644C106.266 14.5044 97.7061 13.9244 90.2461 17.5544C82.7761 21.2044 77.9761 28.3344 77.3961 36.6144L76.0761 55.5544L74.8961 72.2644L60.2461 64.1444L61.4261 47.4344L62.2461 35.5744C63.2061 21.7944 71.1761 9.97436 83.5861 3.92436C95.9961 -2.12564 110.216 -1.13563 121.666 6.58437L189.626 52.4044C201.076 60.1144 207.326 72.9344 206.366 86.7144L206.356 86.6944Z" fill="white"/>
<path d="M299.456 122.924C299.456 135.594 290.646 143.974 275.186 143.974H243.616V69.3345H276.156C289.146 69.3345 296.886 76.5345 296.886 87.4845C296.886 94.7845 292.806 100.904 286.366 104.234C294.636 107.454 299.466 114.224 299.466 122.924H299.456ZM272.286 80.3945H257.146V99.9445H272.076C278.516 99.9445 283.246 96.1845 283.246 90.1745C283.246 84.1645 279.596 80.4045 272.296 80.4045L272.286 80.3945ZM285.816 121.954C285.816 114.974 280.766 111.004 273.146 111.004H257.146V132.914H273.256C281.206 132.914 285.816 128.944 285.816 121.964V121.954Z" fill="white"/>
<path d="M333.496 133.664C341.226 133.664 345.306 130.764 347.886 125.714L358.626 132.584C354.326 139.564 346.816 145.364 333.066 145.364C315.026 145.364 303.206 132.584 303.206 115.724C303.206 98.8645 315.986 86.0845 332.206 86.0845C350.036 86.0845 360.876 100.044 360.876 114.544C360.876 116.694 360.766 118.844 360.556 120.024H316.636C318.466 128.504 325.016 133.664 333.496 133.664ZM347.776 110.464C346.276 101.984 340.476 96.8245 332.526 96.8245C324.576 96.8245 318.346 101.764 316.636 110.464H347.776Z" fill="white"/>
<path d="M396.756 86.0942V98.8742C386.876 98.8742 380.646 104.134 380.646 111.764V143.984H367.006V87.3842H379.896V93.7242C383.766 89.2142 389.666 86.1042 396.756 86.1042V86.0942Z" fill="white"/>
<path d="M455.926 87.3842V135.814C455.926 152.894 444.756 164.484 425.536 164.484C410.176 164.484 401.266 157.824 397.506 147.734L409.216 143.224C411.686 149.774 417.696 153.104 425.646 153.104C436.596 153.104 443.256 146.764 443.256 136.994V133.774C439.066 139.144 432.736 142.474 424.566 142.474C408.346 142.474 396.536 130.124 396.536 114.444C396.536 98.7642 408.346 86.0942 424.566 86.0942C432.726 86.0942 439.066 89.4242 443.256 94.7942V87.3842H455.926ZM442.396 115.094C442.396 105.324 435.846 98.2342 426.396 98.2342C416.946 98.2342 410.176 105.534 410.176 115.094C410.176 124.654 417.046 131.954 426.176 131.954C435.306 131.954 442.396 124.864 442.396 115.094Z" fill="white"/>
<path d="M515.416 131.734V143.974H466.446V69.3345H480.196V131.724H515.416V131.734Z" fill="white"/>
<path d="M573.516 87.3844V143.984H560.846V136.364C556.656 141.944 550.326 145.274 542.156 145.274C525.936 145.274 514.126 132.604 514.126 115.744C514.126 98.8844 525.936 86.9644 542.156 86.9644C550.316 86.9644 556.656 89.9744 561.246 95.4444V87.3944H573.516V87.3844ZM560.416 115.734C560.416 105.314 553.756 98.2344 543.986 98.2344C534.216 98.2344 527.766 105.644 527.766 115.734C527.766 125.824 534.636 133.234 543.986 133.234C553.336 133.234 560.416 126.034 560.416 115.734Z" fill="white"/>
<path d="M642.356 115.734C642.356 132.594 630.546 145.264 614.326 145.264C606.376 145.264 600.046 142.154 595.636 136.784V143.984H582.966V65.4844H596.606V93.6244C601.006 88.8944 607.126 86.1044 614.646 86.1044C630.866 86.1044 642.356 98.7744 642.356 115.744V115.734ZM628.716 115.734C628.716 105.634 621.846 98.2344 612.496 98.2344C603.146 98.2344 596.066 105.324 596.066 115.734C596.066 126.144 602.726 133.234 612.496 133.234C622.266 133.234 628.716 125.824 628.716 115.734Z" fill="white"/>
<path d="M644.286 130.764L656.206 126.144C657.816 131.404 662.216 134.524 669.096 134.524C674.576 134.524 678.006 132.264 678.006 128.294C678.006 117.124 646.966 122.284 646.966 102.844C646.966 92.5342 655.556 86.0942 668.876 86.0942C679.826 86.0942 687.776 90.6042 690.136 98.3342L678.216 102.954C676.716 98.6542 673.386 96.6142 668.656 96.6142C663.606 96.6142 660.926 98.7642 660.926 102.194C660.926 112.504 691.966 106.594 691.966 127.324C691.966 138.604 682.726 145.254 668.556 145.254C656.316 145.254 647.396 140.314 644.286 130.754V130.764Z" fill="white"/>
<path d="M695.516 137.104C695.516 132.374 698.956 128.944 703.466 128.944C707.976 128.944 711.516 132.384 711.516 137.104C711.516 141.504 708.076 145.054 703.466 145.054C698.856 145.054 695.516 141.514 695.516 137.104Z" fill="white"/>
<path d="M773.916 87.3844V143.984H761.246V136.364C757.056 141.944 750.726 145.274 742.556 145.274C726.336 145.274 714.526 132.604 714.526 115.744C714.526 98.8844 726.336 86.9644 742.556 86.9644C750.716 86.9644 757.056 89.9744 761.246 95.4444V87.3944H773.916V87.3844ZM760.816 115.734C760.816 105.314 754.156 98.2344 744.386 98.2344C734.616 98.2344 728.166 105.644 728.166 115.734C728.166 125.824 735.036 133.234 744.386 133.234C753.736 133.234 760.816 126.034 760.816 115.734Z" fill="white"/>
<path d="M780.896 69.3342C780.896 64.0742 784.976 60.0942 790.236 60.0942C795.496 60.0942 799.576 64.0642 799.576 69.3342C799.576 74.6042 795.496 78.3542 790.236 78.3542C784.976 78.3542 780.896 74.5942 780.896 69.3342ZM783.366 87.3742H797.006V143.974H783.366V87.3742Z" fill="white"/>
</svg>
